<svg width="471" height="68" viewBox="0 0 471 68" fill="none" xmlns="http://www.w3.org/2000/svg">
<path d="M324.19 57.94C332.6 57.94 339.49 51.28 339.49 42.87C339.49 34.46 332.72 27.57 324.19 27.57C315.66 27.57 309.01 34.46 309.01 42.87C309.01 51.28 315.78 57.94 324.19 57.94Z" fill="#008CFF"/>
<path d="M15.18 57.94C23.59 57.94 30.48 51.28 30.48 42.87C30.48 34.46 23.71 27.57 15.18 27.57C6.65002 27.57 0 34.46 0 42.87C0 51.28 6.77002 57.94 15.18 57.94Z" fill="#FF6400"/>
<path d="M190.17 39.25C188.44 26.81 177.75 17.95 164.69 17.95C150.42 17.95 138.85 28.47 138.85 42.75C138.85 57.03 150.41 67.55 164.69 67.55C171.02 67.55 176.74 65.39 181.23 61.84L182.02 66.09H194.17L190.16 39.26L190.17 39.25ZM164.69 55.76C157.48 55.76 151.68 50.05 151.68 42.85C151.68 35.65 157.49 29.74 164.69 29.74C171.89 29.74 177.8 35.55 177.8 42.85C177.8 50.15 171.89 55.76 164.69 55.76Z" fill="#12123A"/>
<path d="M114.08 27.17V19.4H101.36V66.09H114.08V49.52C114.08 39.51 120.53 30.55 136.69 30.55V17.94C125.11 17.94 118.35 20.91 114.08 27.17Z" fill="#12123A"/>
<path d="M223.24 50.26C221.99 54.43 220.53 55.05 219.18 55.05C217.83 55.05 216.37 54.42 215.12 50.26L205.74 19.41H191.36L203.76 54.85C206.78 63.5 212.2 67.57 219.19 67.57C226.18 67.57 231.59 63.51 234.62 54.85L247.02 19.41H232.64L223.26 50.26H223.24Z" fill="#12123A"/>
<path d="M69.78 17.95C64.26 17.95 59.25 19.83 55.61 22.64V0H42.89V42.76C42.89 57.04 54.46 67.57 68.74 67.57C83.02 67.57 94.59 57.04 94.59 42.76C94.59 28.48 83.65 17.95 69.78 17.95ZM68.69 55.76C61.48 55.76 55.68 50.05 55.68 42.85C55.68 35.65 61.49 29.74 68.69 29.74C75.89 29.74 81.8 35.55 81.8 42.85C81.8 50.15 75.89 55.76 68.69 55.76Z" fill="#12123A"/>
<path d="M273.06 17.95C258.78 17.95 247.21 28.48 247.21 42.76C247.21 57.04 258.78 67.57 273.06 67.57C287.34 67.57 298.91 57.04 298.91 42.76C298.91 28.48 287.34 17.95 273.06 17.95ZM273.06 55.76C265.85 55.76 260.05 50.05 260.05 42.85C260.05 35.65 265.86 29.74 273.06 29.74C280.26 29.74 286.17 35.55 286.17 42.85C286.17 50.15 280.26 55.76 273.06 55.76Z" fill="#12123A"/>
<path d="M351.39 30.52H357.45V40.51L364.56 30.52H372.04L362.8 42.49L372.41 54.98H364.74L357.45 44.69V54.98H351.39V30.52Z" fill="#12123A"/>
<path d="M372.19 42.75C372.19 35.42 377.58 30.03 385.21 30.03C392.84 30.03 398.23 35.42 398.23 42.75C398.23 50.08 392.84 55.47 385.21 55.47C377.58 55.47 372.19 50.08 372.19 42.75ZM392.09 42.75C392.09 38.64 389.36 35.64 385.21 35.64C381.06 35.64 378.33 38.63 378.33 42.75C378.33 46.87 381.06 49.86 385.21 49.86C389.36 49.86 392.09 46.87 392.09 42.75Z" fill="#12123A"/>
<path d="M402 30.52H411.91C418.38 30.52 421.26 34.04 421.26 38.9C421.26 42.34 419.8 45.15 416.66 46.46L422.16 54.99H414.98L410.64 47.32H408.06V54.99H402V30.53V30.52ZM411.99 41.7C414.42 41.7 415.13 40.5 415.13 38.89C415.13 37.28 414.42 36.12 411.99 36.12H408.06V41.69H411.99V41.7Z" fill="#12123A"/>
<path d="M426.05 30.52H444.12V36.13H432.11V40.13H441.95V44.99H432.11V49.37H444.12V54.98H426.05V30.52Z" fill="#12123A"/>
<path d="M448.49 40.77C448.49 34.11 452.27 30.03 459.23 30.03C466.19 30.03 470.04 34.11 470.04 40.77V54.98H463.98V48.02H454.4V54.98H448.49V40.77ZM463.98 42.79V40.77C463.98 37.4 462.52 35.65 459.19 35.65C455.86 35.65 454.4 37.41 454.4 40.77V42.79H463.98Z" fill="#12123A"/>
</svg>
